<svg width="32" height="32" viewBox="0 0 32 32" fill="none" xmlns="http://www.w3.org/2000/svg">
<path d="M15.4744 15.9506L14.6348 13.7676C14.5339 13.5052 14.2819 13.332 14.0007 13.332C13.7195 13.332 13.4675 13.5052 13.3665 13.7676L12.5269 15.9506C12.4253 16.2147 12.2166 16.4234 11.9525 16.525L9.76954 17.3646C9.50713 17.4655 9.33398 17.7175 9.33398 17.9987C9.33398 18.2799 9.50713 18.5319 9.76954 18.6328L11.9525 19.4724C12.2166 19.574 12.4253 19.7827 12.5269 20.0468L13.3665 22.2298C13.4675 22.4922 13.7195 22.6654 14.0007 22.6654C14.2819 22.6654 14.5339 22.4922 14.6348 22.2298L15.4744 20.0468C15.576 19.7827 15.7847 19.574 16.0488 19.4724L18.2317 18.6328C18.4941 18.5319 18.6673 18.2799 18.6673 17.9987C18.6673 17.7175 18.4941 17.4655 18.2317 17.3646L16.0488 16.525C15.7847 16.4234 15.576 16.2147 15.4744 15.9506Z" fill="#6CF9D8"/>
<path d="M19.0064 9.75184L18.4523 8.31112C18.3803 8.12368 18.2001 8 17.9993 8C17.7985 8 17.6184 8.12368 17.5464 8.31112L16.9923 9.75184C16.8907 10.0159 16.682 10.2246 16.4179 10.3262L14.9771 10.8803C14.7897 10.9524 14.666 11.1325 14.666 11.3333C14.666 11.5342 14.7897 11.7142 14.9771 11.7863L16.4179 12.3405C16.682 12.442 16.8907 12.6507 16.9923 12.9148L17.5464 14.3556C17.6184 14.5429 17.7985 14.6667 17.9993 14.6667C18.2001 14.6667 18.3803 14.5429 18.4523 14.3556L19.0064 12.9148C19.108 12.6507 19.3167 12.442 19.5808 12.3405L21.0216 11.7863C21.2089 11.7142 21.3327 11.5342 21.3327 11.3333C21.3327 11.1325 21.2089 10.9524 21.0216 10.8803L19.5808 10.3262C19.3167 10.2246 19.108 10.0159 19.0064 9.75184Z" fill="#6CF9D8"/>
<path d="M8.33268 9L2.66602 16L8.33268 23" stroke="#6CF9D8" stroke-width="2" stroke-linecap="round" stroke-linejoin="round"/>
<path d="M23.666 9L29.3327 16L23.666 23" stroke="#6CF9D8" stroke-width="2" stroke-linecap="round" stroke-linejoin="round"/>
</svg>
