<svg width="32" height="32" viewBox="0 0 32 32" fill="none" xmlns="http://www.w3.org/2000/svg">
<path d="M5.00065 16C5.00065 22.0751 9.92552 27 16.0007 27C20.6646 27 24.6506 24.0973 26.2508 20M5.00065 16C5.00065 9.92487 9.92552 5 16.0007 5C20.6646 5 24.6506 7.90264 26.2508 12M5.00065 16H2.33398M23.0006 16C23.0006 19.866 19.8666 23 16.0007 23C12.1347 23 9.00065 19.866 9.00065 16C9.00065 12.134 12.1347 9 16.0007 9C19.8666 9 23.0006 12.134 23.0006 16ZM23.0006 16H29.6673" stroke="#6CF9D8" stroke-width="2" stroke-linecap="round" stroke-linejoin="round"/>
</svg>
