<svg width="56" height="56" viewBox="0 0 56 56" fill="none" xmlns="http://www.w3.org/2000/svg">
<path fill-rule="evenodd" clip-rule="evenodd" d="M7.3615 7.3615H14.723V0H41.277V7.3615H48.6385V0H56V7.3615H48.6385V14.723H56V41.277H48.6385V48.6385H41.277V56H14.723V48.6385H7.3615V56H0V48.6385H7.3615V41.277H0V14.723H7.3615V7.3615H0V0H7.3615V7.3615ZM12.139 40.0725L15.9277 43.8612L27.0481 32.7407L26.2922 32.4505C25.0345 31.9675 24.0326 30.9657 23.5496 29.7079L23.2594 28.952L12.139 40.0725ZM32.4504 29.7079C31.9674 30.9657 30.9655 31.9675 29.7078 32.4505L28.9519 32.7407L40.0723 43.8612L43.861 40.0725L32.7406 28.952L32.4504 29.7079ZM12.139 15.9278L23.2594 27.0482L23.5496 26.2924C24.0326 25.0346 25.0345 24.0328 26.2922 23.5498L27.0481 23.2595L15.9277 12.1391L12.139 15.9278ZM28.9519 23.2595L29.7078 23.5498C30.9655 24.0328 31.9674 25.0346 32.4504 26.2924L32.7406 27.0482L43.861 15.9278L40.0723 12.1391L28.9519 23.2595Z" fill="#6CF9D8"/>
<path d="M56 48.6385V56H48.6385V48.6385H56Z" fill="#6CF9D8"/>
</svg>
