<svg width="32" height="32" viewBox="0 0 32 32" fill="none" xmlns="http://www.w3.org/2000/svg">
<path d="M13.1184 17.1057C13.4312 17.9204 14.0796 18.5688 14.8943 18.8816L8.95957 24.8163L7.18367 23.0404L13.1184 17.1057Z" fill="#6CF9D8"/>
<path d="M24.8163 23.0404L23.0404 24.8163L17.1057 18.8816C17.9204 18.5688 18.5688 17.9204 18.8816 17.1057L24.8163 23.0404Z" fill="#6CF9D8"/>
<path d="M14.8943 13.1184C14.0796 13.4312 13.4312 14.0796 13.1184 14.8943L7.18367 8.95957L8.95957 7.18367L14.8943 13.1184Z" fill="#6CF9D8"/>
<path d="M24.8163 8.95957L18.8816 14.8943C18.5688 14.0796 17.9204 13.4312 17.1057 13.1184L23.0404 7.18367L24.8163 8.95957Z" fill="#6CF9D8"/>
<path fill-rule="evenodd" clip-rule="evenodd" d="M16 0C24.8366 0 32 7.16344 32 16C32 24.8366 24.8366 32 16 32C7.16344 32 0 24.8366 0 16C0 7.16344 7.16344 0 16 0ZM16 2.61224C8.60615 2.61224 2.61224 8.60615 2.61224 16C2.61224 23.3939 8.60615 29.3878 16 29.3878C23.3939 29.3878 29.3878 23.3939 29.3878 16C29.3878 8.60615 23.3939 2.61224 16 2.61224Z" fill="#6CF9D8"/>
</svg>
